# xmcd database file
#
# Track frame offsets:
# 150
# 12722
# 28275
# 43965
# 65187
# 75507
# 88300
# 101445
# 111660
# 136680
#
# Disc length: 1985 seconds
#
# Revision: 2
# Processed by: cddbd v1.4PL0 Copyright (c) Steve Scherf et al.
# Submitted via: CD-Runner 2003.08
#
DISCID=9107bf0a
DTITLE=Cathedral Quartet - Greater (Unreleased)
DYEAR=2001
DGENRE=Southern Gospel
TTITLE0=My Lord Will Send a Moses
TTITLE1=Feeling at Home (In the Presence of Jesus)
TTITLE2=I've Been Walkin'
TTITLE3=Rise Again
TTITLE4=I Enjoy the Trip
TTITLE5=Oh the Glory Did Roll
TTITLE6=I'll Stand for Jesus
TTITLE7=I Am Bound for the Promised Land
TTITLE8=The Last Sunday
TTITLE9=Greater is He that is in Me
EXTD=
EXTT0=
EXTT1=
EXTT2=
EXTT3=
EXTT4=
EXTT5=
EXTT6=
EXTT7=
EXTT8=
EXTT9=
PLAYORDER=
